<svg width="39" height="9" viewBox="0 0 39 9" fill="none" xmlns="http://www.w3.org/2000/svg">
<path d="M9.11719 9H7.44141V3C7.44141 2.88281 7.41797 2.77344 7.37109 2.67188C7.32812 2.57031 7.26758 2.48242 7.18945 2.4082C7.11523 2.33008 7.02734 2.26953 6.92578 2.22656C6.82422 2.18359 6.71484 2.16211 6.59766 2.16211C6.48047 2.16211 6.37109 2.18359 6.26953 2.22656C6.16797 2.26953 6.07812 2.33008 6 2.4082C5.92578 2.48242 5.86719 2.57031 5.82422 2.67188C5.78125 2.77344 5.75977 2.88281 5.75977 3V9H4.07812V3C4.07812 2.88281 4.05664 2.77344 4.01367 2.67188C3.9707 2.57031 3.91016 2.48242 3.83203 2.4082C3.75781 2.33008 3.66992 2.26953 3.56836 2.22656C3.4668 2.18359 3.35742 2.16211 3.24023 2.16211C3.12305 2.16211 3.01367 2.18359 2.91211 2.22656C2.81055 2.26953 2.7207 2.33008 2.64258 2.4082C2.56836 2.48242 2.50977 2.57031 2.4668 2.67188C2.42383 2.77344 2.40234 2.88281 2.40234 3V9H0.720703V3C0.720703 2.65234 0.785156 2.32617 0.914062 2.02148C1.04688 1.71289 1.22656 1.44531 1.45312 1.21875C1.68359 0.988281 1.95117 0.808594 2.25586 0.679688C2.56445 0.546875 2.89258 0.480469 3.24023 0.480469C3.55273 0.480469 3.85352 0.537109 4.14258 0.650391C4.43164 0.759766 4.69141 0.919922 4.92188 1.13086C5.15234 0.919922 5.41016 0.759766 5.69531 0.650391C5.98438 0.537109 6.28516 0.480469 6.59766 0.480469C6.94531 0.480469 7.27148 0.546875 7.57617 0.679688C7.88477 0.808594 8.15234 0.988281 8.37891 1.21875C8.60938 1.44531 8.78906 1.71289 8.91797 2.02148C9.05078 2.32617 9.11719 2.65234 9.11719 3V9ZM14.3438 9H12.668V6.36914C12.2969 6.27539 11.9551 6.125 11.6426 5.91797C11.334 5.71094 11.0684 5.46484 10.8457 5.17969C10.623 4.89062 10.4492 4.57227 10.3242 4.22461C10.2031 3.87305 10.1426 3.50391 10.1426 3.11719V0.597656H11.8242V3.11719C11.8242 3.34766 11.8672 3.56641 11.9531 3.77344C12.043 3.97656 12.1641 4.1543 12.3164 4.30664C12.4688 4.45898 12.6465 4.58008 12.8496 4.66992C13.0566 4.75586 13.2754 4.79883 13.5059 4.79883C13.7363 4.79883 13.9531 4.75586 14.1562 4.66992C14.3633 4.58008 14.543 4.45898 14.6953 4.30664C14.8477 4.1543 14.9668 3.97656 15.0527 3.77344C15.1426 3.56641 15.1875 3.34766 15.1875 3.11719V0.597656H16.8633V3.11719C16.8633 3.50391 16.8008 3.87305 16.6758 4.22461C16.5547 4.57227 16.3828 4.89062 16.1602 5.17969C15.9375 5.46484 15.6719 5.71094 15.3633 5.91797C15.0547 6.125 14.7148 6.27539 14.3438 6.36914V9ZM17.5137 3.11719C17.5137 2.76953 17.5801 2.44336 17.7129 2.13867C17.8457 1.83398 18.0254 1.56836 18.252 1.3418C18.4824 1.11133 18.75 0.929688 19.0547 0.796875C19.3594 0.664062 19.6855 0.597656 20.0332 0.597656H23.8887V2.2793H20.0332C19.916 2.2793 19.8066 2.30078 19.7051 2.34375C19.6035 2.38672 19.5137 2.44727 19.4355 2.52539C19.3613 2.59961 19.3027 2.6875 19.2598 2.78906C19.2168 2.89062 19.1953 3 19.1953 3.11719C19.1953 3.23438 19.2168 3.3457 19.2598 3.45117C19.3027 3.55273 19.3613 3.64258 19.4355 3.7207C19.5137 3.79492 19.6035 3.85352 19.7051 3.89648C19.8066 3.93945 19.916 3.96094 20.0332 3.96094H21.7148C22.0625 3.96094 22.3887 4.02734 22.6934 4.16016C23.002 4.28906 23.2695 4.46875 23.4961 4.69922C23.7266 4.92578 23.9062 5.19336 24.0352 5.50195C24.168 5.80664 24.2344 6.13281 24.2344 6.48047C24.2344 6.82812 24.168 7.1543 24.0352 7.45898C23.9062 7.76367 23.7266 8.03125 23.4961 8.26172C23.2695 8.48828 23.002 8.66797 22.6934 8.80078C22.3887 8.93359 22.0625 9 21.7148 9H17.9824V7.31836H21.7148C21.832 7.31836 21.9414 7.29688 22.043 7.25391C22.1445 7.21094 22.2324 7.15234 22.3066 7.07812C22.3848 7 22.4453 6.91016 22.4883 6.80859C22.5312 6.70703 22.5527 6.59766 22.5527 6.48047C22.5527 6.36328 22.5312 6.25391 22.4883 6.15234C22.4453 6.05078 22.3848 5.96289 22.3066 5.88867C22.2324 5.81055 22.1445 5.75 22.043 5.70703C21.9414 5.66406 21.832 5.64258 21.7148 5.64258H20.0332C19.6855 5.64258 19.3594 5.57617 19.0547 5.44336C18.75 5.31055 18.4824 5.13086 18.252 4.9043C18.0254 4.67383 17.8457 4.40625 17.7129 4.10156C17.5801 3.79297 17.5137 3.46484 17.5137 3.11719ZM30.9609 3.11719C30.9609 3.46484 30.8945 3.79297 30.7617 4.10156C30.6289 4.40625 30.4473 4.67383 30.2168 4.9043C29.9902 5.13086 29.7246 5.31055 29.4199 5.44336C29.1152 5.57617 28.7891 5.64258 28.4414 5.64258H27.5977C27.4805 5.64258 27.3711 5.66406 27.2695 5.70703C27.168 5.75 27.0781 5.81055 27 5.88867C26.9258 5.96289 26.8672 6.05078 26.8242 6.15234C26.7812 6.25391 26.7598 6.36328 26.7598 6.48047V7.31836H30.7324V9H25.0781V6.48047C25.0781 6.13281 25.1445 5.80664 25.2773 5.50195C25.4102 5.19336 25.5898 4.92578 25.8164 4.69922C26.0469 4.46875 26.3145 4.28906 26.6191 4.16016C26.9238 4.02734 27.25 3.96094 27.5977 3.96094H28.4414C28.5586 3.96094 28.668 3.93945 28.7695 3.89648C28.8711 3.85352 28.959 3.79492 29.0332 3.7207C29.1113 3.64258 29.1719 3.55273 29.2148 3.45117C29.2578 3.3457 29.2793 3.23438 29.2793 3.11719C29.2793 3 29.2578 2.89062 29.2148 2.78906C29.1719 2.6875 29.1113 2.59961 29.0332 2.52539C28.959 2.44727 28.8711 2.38672 28.7695 2.34375C28.668 2.30078 28.5586 2.2793 28.4414 2.2793H25.4414V0.597656H28.4414C28.7891 0.597656 29.1152 0.664062 29.4199 0.796875C29.7246 0.929688 29.9902 1.11133 30.2168 1.3418C30.4473 1.56836 30.6289 1.83398 30.7617 2.13867C30.8945 2.44336 30.9609 2.76953 30.9609 3.11719ZM38.9297 4.79883C38.9297 5.18555 38.8789 5.55859 38.7773 5.91797C38.6797 6.27344 38.5391 6.60742 38.3555 6.91992C38.1719 7.22852 37.9531 7.51172 37.6992 7.76953C37.4453 8.02344 37.1621 8.24219 36.8496 8.42578C36.5371 8.60938 36.2012 8.75195 35.8418 8.85352C35.4863 8.95117 35.1152 9 34.7285 9H32.1973V0.597656H34.7285C35.1152 0.597656 35.4863 0.648438 35.8418 0.75C36.2012 0.847656 36.5371 0.988281 36.8496 1.17188C37.1621 1.35547 37.4453 1.57617 37.6992 1.83398C37.9531 2.08789 38.1719 2.37109 38.3555 2.68359C38.5391 2.99219 38.6797 3.32617 38.7773 3.68555C38.8789 4.04102 38.9297 4.41211 38.9297 4.79883ZM37.248 4.79883C37.248 4.45117 37.1816 4.125 37.0488 3.82031C36.9199 3.51562 36.7402 3.25 36.5098 3.02344C36.2832 2.79297 36.0156 2.61133 35.707 2.47852C35.4023 2.3457 35.0762 2.2793 34.7285 2.2793H33.8906V7.31836H34.7285C35.0762 7.31836 35.4023 7.25391 35.707 7.125C36.0156 6.99219 36.2832 6.8125 36.5098 6.58594C36.7402 6.35547 36.9199 6.08789 37.0488 5.7832C37.1816 5.47461 37.248 5.14648 37.248 4.79883Z" fill="white"/>
</svg>
